<svg width="159" height="48" viewBox="0 0 159 48" fill="none" xmlns="http://www.w3.org/2000/svg">
<mask id="mask0_166_122" style="mask-type:alpha" maskUnits="userSpaceOnUse" x="0" y="0" width="48" height="48">
<rect width="48" height="48" fill="#D9D9D9"/>
</mask>
<g mask="url(#mask0_166_122)">
<path d="M22 42V26.05C19.8667 26.05 17.8167 25.6413 15.85 24.824C13.8833 24.008 12.15 22.85 10.65 21.35C9.15 19.85 8 18.1167 7.2 16.15C6.4 14.1833 6 12.1333 6 10V6H10C12.1 6 14.1333 6.408 16.1 7.224C18.0667 8.04133 19.8 9.2 21.3 10.7C22.3333 11.7333 23.192 12.8667 23.876 14.1C24.5587 15.3333 25.0833 16.65 25.45 18.05C25.6167 17.8167 25.8 17.592 26 17.376C26.2 17.1587 26.4167 16.9333 26.65 16.7C28.15 15.2 29.8833 14.0413 31.85 13.224C33.8167 12.408 35.8667 12 38 12H42V16C42 18.1333 41.592 20.1833 40.776 22.15C39.9587 24.1167 38.8 25.85 37.3 27.35C35.8 28.85 34.0747 30 32.124 30.8C30.1747 31.6 28.1333 32 26 32V42H22Z" fill="#1C1B1F"/>
</g>
<path d="M70.1613 17.5H64.7613V30H61.8613V17.5H56.4613V16H70.1613V17.5ZM75.8707 29C76.524 29 77.1307 28.8867 77.6907 28.66C78.264 28.4333 78.824 28.1133 79.3707 27.7L80.1707 28.9C79.9174 29.1267 79.6174 29.3333 79.2707 29.52C78.9374 29.7067 78.5707 29.8667 78.1707 30C77.784 30.12 77.3774 30.2133 76.9507 30.28C76.524 30.36 76.0974 30.4 75.6707 30.4C74.724 30.4 73.8574 30.2733 73.0707 30.02C72.2974 29.78 71.6374 29.4267 71.0907 28.96C70.544 28.48 70.1174 27.8933 69.8107 27.2C69.5174 26.5067 69.3707 25.7067 69.3707 24.8C69.3707 23.9067 69.5107 23.1133 69.7907 22.42C70.084 21.7133 70.484 21.1267 70.9907 20.66C71.5107 20.18 72.124 19.82 72.8307 19.58C73.5374 19.3267 74.3174 19.2 75.1707 19.2C75.9707 19.2 76.724 19.32 77.4307 19.56C78.1374 19.8 78.7507 20.1533 79.2707 20.62C79.7907 21.0733 80.204 21.6267 80.5107 22.28C80.8174 22.9333 80.9707 23.6733 80.9707 24.5V25.9H72.4307C72.5907 27.0067 72.9707 27.8 73.5707 28.28C74.184 28.76 74.9507 29 75.8707 29ZM75.1707 20.5C74.784 20.5 74.424 20.5733 74.0907 20.72C73.7574 20.8667 73.464 21.1 73.2107 21.42C72.9707 21.74 72.7707 22.1533 72.6107 22.66C72.464 23.1667 72.384 23.78 72.3707 24.5H77.9707C77.9707 23.8067 77.8907 23.2067 77.7307 22.7C77.5707 22.1933 77.3574 21.78 77.0907 21.46C76.8374 21.1267 76.5374 20.8867 76.1907 20.74C75.8574 20.58 75.5174 20.5 75.1707 20.5ZM85.6691 26.7C85.6691 27.9667 86.4358 28.6 87.9691 28.6H90.7691V24.8H87.9691C86.4358 24.8 85.6691 25.4333 85.6691 26.7ZM90.7691 23.4C90.7691 22.44 90.5158 21.7333 90.0091 21.28C89.5158 20.8267 88.8691 20.6 88.0691 20.6C87.4691 20.6 86.8825 20.6933 86.3091 20.88C85.7358 21.0533 85.2225 21.2933 84.7691 21.6L84.0691 20.4C84.3625 20.2 84.6825 20.0267 85.0291 19.88C85.3891 19.7333 85.7558 19.6133 86.1291 19.52C86.5025 19.4133 86.8691 19.3333 87.2291 19.28C87.6025 19.2267 87.9491 19.2 88.2691 19.2C89.1225 19.2 89.8758 19.3 90.5291 19.5C91.1825 19.7 91.7358 19.9867 92.1891 20.36C92.6425 20.7333 92.9825 21.18 93.2091 21.7C93.4491 22.2067 93.5691 22.7733 93.5691 23.4V30H87.9691C86.1558 30 84.8158 29.7267 83.9491 29.18C83.0958 28.6333 82.6691 27.8067 82.6691 26.7C82.6691 25.5933 83.0958 24.7667 83.9491 24.22C84.8158 23.6733 86.1558 23.4 87.9691 23.4H90.7691ZM116.452 26.3C116.452 26.8733 116.332 27.4133 116.092 27.92C115.852 28.4133 115.459 28.8467 114.912 29.22C114.379 29.58 113.679 29.8667 112.812 30.08C111.959 30.2933 110.905 30.4 109.652 30.4C108.945 30.4 108.252 30.3467 107.572 30.24C106.905 30.1333 106.265 29.98 105.652 29.78C105.052 29.58 104.492 29.34 103.972 29.06C103.465 28.7667 103.025 28.4467 102.652 28.1L103.652 26.9C104.412 27.5533 105.299 28.0533 106.312 28.4C107.325 28.7333 108.439 28.9 109.652 28.9C110.999 28.9 111.952 28.7133 112.512 28.34C113.072 27.9667 113.352 27.4533 113.352 26.8C113.352 26.2933 113.132 25.8667 112.692 25.52C112.252 25.1733 111.505 24.8333 110.452 24.5L106.652 23.3C105.399 22.9 104.452 22.3933 103.812 21.78C103.172 21.1533 102.852 20.36 102.852 19.4C102.852 18.9067 102.965 18.4333 103.192 17.98C103.432 17.5133 103.799 17.1067 104.292 16.76C104.785 16.4 105.412 16.12 106.172 15.92C106.945 15.7067 107.872 15.6 108.952 15.6C109.605 15.6 110.252 15.6533 110.892 15.76C111.545 15.8667 112.165 16.02 112.752 16.22C113.352 16.42 113.905 16.6667 114.412 16.96C114.932 17.24 115.379 17.5533 115.752 17.9L114.752 19.1C113.992 18.4467 113.139 17.9533 112.192 17.62C111.245 17.2733 110.165 17.1 108.952 17.1C107.952 17.1 107.199 17.2733 106.692 17.62C106.199 17.9667 105.952 18.3933 105.952 18.9C105.952 19.18 105.999 19.4267 106.092 19.64C106.185 19.84 106.339 20.0333 106.552 20.22C106.779 20.3933 107.072 20.56 107.432 20.72C107.792 20.8667 108.239 21.0267 108.772 21.2L112.552 22.4C113.765 22.7867 114.719 23.2933 115.412 23.92C116.105 24.5467 116.452 25.34 116.452 26.3ZM129.552 30H126.752V23.7C126.752 22.74 126.512 22.0533 126.032 21.64C125.552 21.2133 124.859 21 123.952 21H121.352V30H118.552V16H121.352V19.6H123.952C125.859 19.6 127.265 19.9467 128.172 20.64C129.092 21.32 129.552 22.34 129.552 23.7V30ZM137.943 29.1C138.37 29.1 138.77 29.02 139.143 28.86C139.517 28.7 139.843 28.4533 140.123 28.12C140.403 27.7733 140.623 27.3267 140.783 26.78C140.957 26.2333 141.043 25.5733 141.043 24.8C141.043 24.0267 140.957 23.3667 140.783 22.82C140.623 22.2733 140.403 21.8333 140.123 21.5C139.843 21.1533 139.517 20.9 139.143 20.74C138.77 20.58 138.37 20.5 137.943 20.5C137.517 20.5 137.117 20.58 136.743 20.74C136.37 20.9 136.043 21.1533 135.763 21.5C135.483 21.8333 135.257 22.2733 135.083 22.82C134.923 23.3667 134.843 24.0267 134.843 24.8C134.843 25.5733 134.923 26.2333 135.083 26.78C135.257 27.3267 135.483 27.7733 135.763 28.12C136.043 28.4533 136.37 28.7 136.743 28.86C137.117 29.02 137.517 29.1 137.943 29.1ZM137.943 19.2C138.837 19.2 139.657 19.3267 140.403 19.58C141.163 19.82 141.81 20.18 142.343 20.66C142.877 21.1267 143.29 21.7133 143.583 22.42C143.89 23.1133 144.043 23.9067 144.043 24.8C144.043 25.7067 143.89 26.5067 143.583 27.2C143.29 27.8933 142.877 28.48 142.343 28.96C141.81 29.4267 141.163 29.78 140.403 30.02C139.657 30.2733 138.837 30.4 137.943 30.4C137.037 30.4 136.21 30.2733 135.463 30.02C134.717 29.78 134.077 29.4267 133.543 28.96C133.01 28.48 132.59 27.8933 132.283 27.2C131.99 26.5067 131.843 25.7067 131.843 24.8C131.843 23.9067 131.99 23.1133 132.283 22.42C132.59 21.7133 133.01 21.1267 133.543 20.66C134.077 20.18 134.717 19.82 135.463 19.58C136.21 19.3267 137.037 19.2 137.943 19.2ZM149.247 21V28.6H151.747C152.201 28.6 152.614 28.5333 152.987 28.4C153.374 28.2533 153.701 28.0267 153.967 27.72C154.247 27.4133 154.461 27.02 154.607 26.54C154.767 26.06 154.847 25.48 154.847 24.8C154.847 24.12 154.767 23.54 154.607 23.06C154.461 22.58 154.247 22.1867 153.967 21.88C153.701 21.5733 153.374 21.3533 152.987 21.22C152.614 21.0733 152.201 21 151.747 21H149.247ZM151.747 19.6C152.667 19.6 153.501 19.72 154.247 19.96C155.007 20.2 155.654 20.5467 156.187 21C156.721 21.4533 157.127 22 157.407 22.64C157.701 23.28 157.847 24 157.847 24.8C157.847 25.6 157.701 26.32 157.407 26.96C157.127 27.6 156.721 28.1467 156.187 28.6C155.654 29.0533 155.007 29.4 154.247 29.64C153.501 29.88 152.667 30 151.747 30H149.247V33.6H146.447V19.6H151.747Z" fill="#282828"/>
</svg>
